<svg width="99" height="75" viewBox="0 0 99 75" fill="none" xmlns="http://www.w3.org/2000/svg">
<g clip-path="url(#clip0_730_8583)">
<path fill-rule="evenodd" clip-rule="evenodd" d="M48.9677 1.00002C47.0782 0.998634 45.2855 1.08354 43.834 1.20462C43.5588 1.22758 43.3171 1.0231 43.2942 0.747918C43.2712 0.472731 43.4757 0.231039 43.7509 0.208083C46.859 -0.0511908 51.5312 -0.150038 55.4415 0.404484C57.3915 0.681024 59.1946 1.12556 60.524 1.82078C61.8521 2.51535 62.8186 3.52683 62.8186 4.95627C62.8186 5.23241 62.5947 5.45627 62.3186 5.45627C62.0424 5.45627 61.8186 5.23241 61.8186 4.95627C61.8186 4.06757 61.2412 3.32435 60.0606 2.70692C58.8812 2.09014 57.2106 1.66538 55.3011 1.39458C53.9226 1.19909 52.4417 1.08671 50.9677 1.03501V4.45618H52.0844C53.4651 4.45618 54.5844 5.57547 54.5844 6.95618V12.1832H60.3187C61.6994 12.1832 62.8187 13.3025 62.8187 14.6832V19.9103H64.4354C65.8161 19.9103 66.9354 21.0296 66.9354 22.4103V72.5001C66.9354 73.8808 65.8161 75.0001 64.4354 75.0001H35.5C34.1193 75.0001 33 73.8808 33 72.5001V22.4103C33 21.0296 34.1193 19.9103 35.5 19.9103H37.1172V14.6832C37.1172 13.3025 38.2365 12.1832 39.6172 12.1832H45.3505V6.95618C45.3505 5.57547 46.4698 4.45618 47.8505 4.45618H48.9677V1.00002ZM45.3505 13.1832V13.1833H45.8505H54.0844H54.5844V13.1832H60.3187C61.1471 13.1832 61.8187 13.8548 61.8187 14.6832V19.9103H38.1172V14.6832C38.1172 13.8548 38.7888 13.1832 39.6172 13.1832H45.3505ZM53.5844 12.1832V6.95618C53.5844 6.12775 52.9128 5.45618 52.0844 5.45618H47.8505C47.0221 5.45618 46.3505 6.12775 46.3505 6.95618V12.1832H53.5844ZM37.1172 20.9103V20.9103H35.5C34.6716 20.9103 34 21.5819 34 22.4103V33.0465H65.9354V22.4103C65.9354 21.5819 65.2638 20.9103 64.4354 20.9103H62.8187V20.9103H62.3187H37.6172H37.1172ZM65.9354 34.0465H34V63.9546H65.9354V34.0465ZM34 72.5001V64.9546H65.9354V72.5001C65.9354 73.3285 65.2638 74.0001 64.4354 74.0001H35.5C34.6716 74.0001 34 73.3285 34 72.5001Z" fill="#282828"/>
</g>
<defs>
<clipPath id="clip0_730_8583">
<rect width="99" height="75" fill="white"/>
</clipPath>
</defs>
</svg>
