<svg width="99" height="75" viewBox="0 0 99 75" fill="none" xmlns="http://www.w3.org/2000/svg">
<path fill-rule="evenodd" clip-rule="evenodd" d="M0 39.5V5H1V29.5H19.1047C20.4827 29.5 21.6274 29.8097 22.5624 30.3871C23.4969 30.9641 24.1907 31.789 24.6983 32.7703C25.6412 34.5934 25.9604 36.994 25.9965 39.5H98.5H99V40V55V55.5H98.5H0.5H0V55V40V39.5ZM1 40.5V54.5H98V40.5H1ZM1 39.5V30.5H19.1047C20.329 30.5 21.285 30.7736 22.037 31.2379C22.7896 31.7026 23.3694 32.3777 23.81 33.2297C24.6446 34.8433 24.9598 37.0505 24.9963 39.5H1ZM0 59V69H1V59H0ZM98 69V59H99V69H98Z" fill="#282828"/>
</svg>
