<svg width="99" height="75" viewBox="0 0 99 75" fill="none" xmlns="http://www.w3.org/2000/svg">
<path fill-rule="evenodd" clip-rule="evenodd" d="M22.5 5H22V5.5V15H12.5H12V15.5V24.5V25.5V26V69.5V70H12.5H87.5H88V69.5V26V25.5V24.5V15.5V15H87.5H78V5.5V5H77.5H72.5H72V5.5V15H28V5.5V5H27.5H22.5ZM78 20.5V16H87V24.5V25H13V24.5V16H22V20.5V21H22.5H27.5H28V20.5V16H72V20.5V21H72.5H77.5H78V20.5ZM23 20V6H27V20H23ZM13 69V26H87V69H13ZM73 6V20H77V6H73ZM36.0355 56.81V57.5H48.7855V56.51H41.4055C40.2355 56.51 39.0355 56.57 37.8355 56.66C44.1355 50.84 47.7055 46.22 47.7055 41.45C47.7055 37.76 45.5755 35.33 41.8855 35.33C39.3355 35.33 37.5055 36.71 35.9755 38.42L36.7255 39.11C38.0455 37.46 39.8455 36.32 41.7955 36.32C45.1255 36.32 46.5655 38.63 46.5655 41.45C46.5655 45.56 43.7755 50.18 36.0355 56.81ZM50.57 55.07C51.89 56.39 53.75 57.89 57.11 57.89C60.41 57.89 63.74 55.25 63.74 50.57C63.74 45.71 60.89 43.58 57.32 43.58C55.7 43.58 54.5 44.03 53.39 44.72L54.11 36.71H62.63V35.72H53.12L52.34 45.5L53.24 46.04C54.47 45.2 55.61 44.6 57.23 44.6C60.5 44.6 62.6 46.91 62.6 50.63C62.6 54.38 60.05 56.9 57.17 56.9C54.14 56.9 52.49 55.58 51.26 54.26L50.57 55.07Z" fill="#282828"/>
</svg>
