<svg width="99" height="75" viewBox="0 0 99 75" fill="none" xmlns="http://www.w3.org/2000/svg">
<mask id="path-1-inside-1_730_8581" fill="white">
<path fill-rule="evenodd" clip-rule="evenodd" d="M53.699 30H47.4514V34.5H42.7656V40.5H47.4514V45H53.699V40.5H58.3846V34.5H53.699V30Z"/>
</mask>
<path d="M47.4514 30V29H46.4514V30H47.4514ZM53.699 30H54.699V29H53.699V30ZM47.4514 34.5V35.5H48.4514V34.5H47.4514ZM42.7656 34.5V33.5H41.7656V34.5H42.7656ZM42.7656 40.5H41.7656V41.5H42.7656V40.5ZM47.4514 40.5H48.4514V39.5H47.4514V40.5ZM47.4514 45H46.4514V46H47.4514V45ZM53.699 45V46H54.699V45H53.699ZM53.699 40.5V39.5H52.699V40.5H53.699ZM58.3846 40.5V41.5H59.3846V40.5H58.3846ZM58.3846 34.5H59.3846V33.5H58.3846V34.5ZM53.699 34.5H52.699V35.5H53.699V34.5ZM47.4514 31H53.699V29H47.4514V31ZM48.4514 34.5V30H46.4514V34.5H48.4514ZM42.7656 35.5H47.4514V33.5H42.7656V35.5ZM43.7656 40.5V34.5H41.7656V40.5H43.7656ZM47.4514 39.5H42.7656V41.5H47.4514V39.5ZM48.4514 45V40.5H46.4514V45H48.4514ZM53.699 44H47.4514V46H53.699V44ZM52.699 40.5V45H54.699V40.5H52.699ZM58.3846 39.5H53.699V41.5H58.3846V39.5ZM57.3846 34.5V40.5H59.3846V34.5H57.3846ZM53.699 35.5H58.3846V33.5H53.699V35.5ZM52.699 30V34.5H54.699V30H52.699Z" fill="#282828" mask="url(#path-1-inside-1_730_8581)"/>
<path fill-rule="evenodd" clip-rule="evenodd" d="M55.3305 3.63848C53.6331 1.86552 51.8798 1 50.1421 1C48.4045 1 46.6511 1.86552 44.9537 3.63848C43.2539 5.41402 41.677 8.03626 40.3315 11.3588C37.6428 17.9988 35.957 27.2406 35.957 37.5C35.957 47.7594 37.6428 57.0012 40.3315 63.6412C41.677 66.9637 43.2539 69.586 44.9537 71.3615C46.6511 73.1345 48.4045 74 50.1421 74C51.8798 74 53.6331 73.1345 55.3305 71.3615C55.4867 71.1984 55.6418 71.0282 55.7958 70.8509C55.2427 70.1515 54.9145 69.2791 54.9145 68.3331C54.9145 66.0319 56.8569 64.1665 59.2531 64.1665C59.4126 64.1665 59.5702 64.1747 59.7254 64.1909C59.8019 64.0098 59.8777 63.8266 59.9527 63.6412C62.6415 57.0012 64.3272 47.7594 64.3272 37.5C64.3272 27.2406 62.6415 17.9988 59.9527 11.3588C58.6073 8.03625 57.0304 5.41402 55.3305 3.63848ZM50.1421 75C52.4145 75 54.5703 73.7674 56.5058 71.5582C57.2539 72.1467 58.2106 72.4998 59.2531 72.4998C61.6492 72.4998 63.5917 70.6343 63.5917 68.3331C63.5917 66.5256 62.3933 64.987 60.7179 64.4099C63.5608 57.595 65.3272 48.057 65.3272 37.5C65.3272 16.7893 58.5286 0 50.1421 0C41.7556 0 34.957 16.7893 34.957 37.5C34.957 58.2107 41.7556 75 50.1421 75ZM59.2532 71.6667C61.1701 71.6667 62.7241 70.1743 62.7241 68.3333C62.7241 66.4924 61.1701 65 59.2532 65C57.3363 65 55.7823 66.4924 55.7823 68.3333C55.7823 70.1743 57.3363 71.6667 59.2532 71.6667Z" fill="#282828"/>
<path fill-rule="evenodd" clip-rule="evenodd" d="M79.2111 14.1667C79.2111 14.5053 79.169 14.8346 79.0896 15.1498C81.4309 15.7482 83.1771 16.8438 84.1504 18.4628C86.7725 22.8244 83.1643 29.9519 75.5259 37.2127C83.1645 44.4736 86.7728 51.6013 84.1507 55.9629C80.5289 61.9874 66.205 60.7642 50.3343 53.6467C34.4638 60.7641 20.14 61.9872 16.5183 55.9628C13.8962 51.6012 17.5045 44.4736 25.1429 37.2127C23.6414 35.7854 22.2956 34.3632 21.1222 32.9661C20.5781 33.2021 19.9743 33.3334 19.3386 33.3334C16.9425 33.3334 15 31.4679 15 29.1667C15 27.8556 15.6306 26.6859 16.6164 25.9221C15.4231 23.0257 15.3206 20.4556 16.5186 18.4629C20.1403 12.4385 34.4639 13.6615 50.3343 20.7789C57.7289 17.4627 64.7877 15.426 70.5846 14.8059C70.5512 14.5975 70.5339 14.384 70.5339 14.1667C70.5339 11.8655 72.4763 10 74.8725 10C77.2686 10 79.2111 11.8655 79.2111 14.1667ZM78.8217 32.2568C77.6519 33.6567 76.3017 35.0859 74.7886 36.523C70.3098 32.3987 64.5552 28.2584 57.9272 24.5834C55.791 23.3989 53.6566 22.3141 51.5452 21.332C57.8769 18.5605 63.9128 16.7566 69.0472 15.9977C69.6686 15.9058 70.2752 15.8295 70.8661 15.7687C71.5198 17.2747 73.0674 18.3333 74.8725 18.3333C76.5534 18.3333 78.0111 17.4153 78.7315 16.0727C80.9662 16.6217 82.4712 17.6093 83.2758 18.9477C84.1272 20.3639 84.2323 22.2357 83.4801 24.5401C82.7281 26.8443 81.1493 29.4716 78.8217 32.2568ZM57.4119 25.4404C55.038 24.1242 52.6689 22.9335 50.3343 21.8723C47.9999 22.9335 45.6308 24.1241 43.257 25.4403C36.6992 29.0764 31.024 33.1616 26.6184 37.2127C31.024 41.2639 36.6994 45.3492 43.2573 48.9854C45.631 50.3016 48 51.4921 50.3343 52.5533C52.6688 51.4921 55.0378 50.3015 57.4116 48.9853C63.9695 45.3491 69.6448 41.2639 74.0504 37.2127C69.6449 33.1616 63.9696 29.0765 57.4119 25.4404ZM31.6218 15.9978C36.7561 16.7567 42.7918 18.5606 49.1234 21.332C47.0122 22.3141 44.8779 23.3988 42.7418 24.5833C36.1136 28.2584 30.3591 32.3987 25.8803 36.5229C24.4368 35.1521 23.1416 33.7882 22.0098 32.4503C23.0248 31.6876 23.6772 30.5003 23.6772 29.1667C23.6772 26.8655 21.7347 25.0001 19.3386 25.0001C18.6808 25.0001 18.0572 25.1406 17.4986 25.3922C17.3833 25.1037 17.28 24.8196 17.1888 24.5403C16.4367 22.2358 16.5418 20.364 17.3931 18.9478C18.2445 17.5317 19.8799 16.5084 22.334 15.9817C24.7878 15.4551 27.9464 15.4545 31.6218 15.9978ZM21.8469 42.1688C23.0168 40.7689 24.367 39.3396 25.8802 37.9025C30.3591 42.0268 36.1138 46.1673 42.7421 49.8424C44.8781 51.0268 47.0123 52.1115 49.1234 53.0935C42.7917 55.8651 36.7559 57.669 31.6215 58.4279C27.9461 58.9712 24.7876 58.9706 22.3337 58.444C19.8796 57.9173 18.2442 56.894 17.3928 55.4779C16.5415 54.0617 16.4364 52.1899 17.1885 49.8854C17.9406 47.5813 19.5194 44.954 21.8469 42.1688ZM57.9269 49.8423C55.7908 51.0267 53.6565 52.1115 51.5452 53.0935C57.877 55.8651 63.913 57.6691 69.0474 58.428C72.7228 58.9713 75.8814 58.9707 78.3352 58.4441C80.7894 57.9174 82.4248 56.8941 83.2761 55.478C84.1275 54.0618 84.2325 52.19 83.4804 49.8856C82.7284 47.5814 81.1496 44.9541 78.822 42.1689C77.6521 40.769 76.3018 39.3396 74.7886 37.9025C70.3097 42.0268 64.5551 46.1672 57.9269 49.8423ZM74.8726 17.5C76.7895 17.5 78.3435 16.0077 78.3435 14.1667C78.3435 12.3258 76.7895 10.8334 74.8726 10.8334C72.9557 10.8334 71.4017 12.3258 71.4017 14.1667C71.4017 16.0077 72.9557 17.5 74.8726 17.5ZM19.3387 32.4999C21.2557 32.4999 22.8096 31.0075 22.8096 29.1666C22.8096 27.3256 21.2557 25.8333 19.3387 25.8333C17.4218 25.8333 15.8679 27.3256 15.8679 29.1666C15.8679 31.0075 17.4218 32.4999 19.3387 32.4999Z" fill="#282828"/>
</svg>
