<svg width="39" height="31" viewBox="0 0 39 31" fill="none" xmlns="http://www.w3.org/2000/svg">
<path d="M37.3 5.35063C36.93 3.57063 35.65 2.12062 33.94 1.54062C30.96 0.640625 19.05 0.640625 19.05 0.640625C19.05 0.640625 7.14 0.640625 4.16 1.54062C2.44 2.13062 1.16 3.57063 0.79 5.35063C0 8.71062 0 15.7306 0 15.7306C0 15.7306 0 22.7506 0.8 26.1006C1.17 27.8806 2.45 29.3306 4.17 29.9106C7.14 30.8106 19.06 30.8106 19.06 30.8106C19.06 30.8106 30.97 30.8106 33.95 29.9106C35.67 29.3206 36.94 27.8706 37.31 26.1006C38.11 22.7406 38.11 15.7306 38.11 15.7306C38.11 15.7306 38.1 8.71062 37.3 5.35063ZM15.24 22.1906V9.26062L25.14 15.7306L15.24 22.1906Z" fill="black"/>
</svg>
