<svg width="332" height="400" viewBox="0 0 332 400" fill="none" xmlns="http://www.w3.org/2000/svg">
<path d="M332 165.722C332 212.336 312.714 254.468 281.638 284.556L166 400L50.3622 284.556C19.286 254.506 0 212.375 0 165.722C0 74.2083 74.294 0 166 0C257.706 0 332 74.2083 332 165.722Z" fill="#D47D5A"/>
<path d="M59.0212 192.217C48.297 192.217 41.1113 184.705 41.1113 175.814C41.1113 166.155 48.4059 158.234 59.8377 158.234C70.5618 158.234 77.7475 165.747 77.7475 174.638C77.7475 184.297 70.453 192.217 59.0212 192.217ZM75.3523 177.807C75.3523 167.995 65.3903 160.176 56.517 160.176C50.039 160.176 43.5066 165.491 43.5066 172.645C43.5066 182.457 53.4686 190.276 62.3418 190.276C68.8743 190.276 75.3523 184.961 75.3523 177.807Z" fill="white"/>
<path d="M88.3639 191.655C87.384 191.553 86.513 191.349 85.5332 191.349C83.3557 191.349 82.0492 191.655 81.7226 191.655C81.4504 191.655 81.1238 191.604 81.1238 191.298C81.1238 190.991 81.2871 190.838 81.6681 190.787C82.648 190.531 83.7912 190.327 84.9888 190.173C85.1521 185.83 85.2065 180.259 85.2065 172.901C85.2065 168.966 85.261 163.805 84.9344 157.212C84.8799 156.139 84.6622 154.862 83.8456 154.862C82.7569 154.862 81.8859 155.833 81.3415 155.833C81.0693 155.833 80.9604 155.628 80.9604 155.373C80.9604 154.606 85.4787 152 87.7651 152C88.745 152 88.745 152.767 88.745 153.584C88.745 156.906 88.5272 171.368 88.5272 177.755C90.2148 176.58 92.9366 174.587 95.9851 174.587C100.449 174.587 102.3 178.522 102.3 182.406C102.3 187.874 99.4146 191.962 94.0254 191.962C90.868 191.962 89.0171 190.531 88.3639 189.969V191.655ZM98.6525 183.019C98.6525 179.442 97.0194 176.529 93.9165 176.529C91.6301 176.529 89.8337 178.062 88.5272 179.084C88.4728 180.668 88.3639 182.712 88.3639 183.939C88.3639 185.063 88.3639 187.209 89.2893 188.589C90.0515 189.918 92.0112 190.787 93.6987 190.787C96.9105 190.787 98.6525 187.465 98.6525 183.019Z" fill="white"/>
<path d="M117.486 191.298C117.486 191.604 117.16 191.655 116.887 191.655C116.452 191.655 114.656 191.349 112.043 191.349C109.43 191.349 107.633 191.655 107.198 191.655C106.925 191.655 106.599 191.604 106.599 191.298C106.599 190.991 106.762 190.838 107.143 190.787C107.96 190.531 109.212 190.327 110.246 190.173C110.355 184.859 110.409 176.376 110.409 172.185C110.409 168.25 110.192 160.892 110.192 157.212C110.192 156.139 109.919 154.862 109.103 154.862C108.014 154.862 107.143 155.833 106.599 155.833C106.327 155.833 106.218 155.628 106.218 155.373C106.218 154.606 110.736 152 113.022 152C114.002 152 114.002 152.767 114.002 153.584C114.002 156.19 113.73 168.25 113.73 172.185C113.73 176.376 113.73 184.859 113.839 190.173C114.873 190.327 116.125 190.531 116.942 190.787C117.323 190.838 117.486 190.991 117.486 191.298Z" fill="white"/>
<path d="M126.034 191.348C123.422 191.348 121.625 191.655 121.19 191.655C120.917 191.655 120.591 191.604 120.591 191.297C120.591 190.991 120.754 190.837 121.135 190.786C121.952 190.531 123.204 190.326 124.238 190.173C124.347 188.844 124.401 185.114 124.401 183.581C124.401 182.048 124.347 177.96 124.293 176.58C123.367 176.58 121.843 176.682 120.7 176.682C120.373 176.682 120.264 176.478 120.264 176.324C120.264 175.762 121.516 175.711 123.639 175.251C125.653 174.791 127.069 174.331 127.45 174.331C127.776 174.331 127.885 174.536 127.885 174.996C127.885 175.405 127.831 176.018 127.831 176.58C127.776 177.96 127.722 181.997 127.722 183.581C127.722 185.165 127.776 188.844 127.885 190.173C128.92 190.326 130.117 190.531 130.934 190.786C131.315 190.837 131.478 190.991 131.478 191.297C131.478 191.604 131.152 191.655 130.879 191.655C130.444 191.655 128.647 191.348 126.034 191.348ZM125.653 166.717C124.293 166.717 123.149 165.644 123.149 164.367C123.149 163.089 124.293 162.016 125.653 162.016C127.014 162.016 128.158 163.089 128.158 164.367C128.158 165.644 127.014 166.717 125.653 166.717Z" fill="white"/>
<path d="M144.379 192.217C143.998 192.217 143.726 191.706 143.563 191.4C142.365 189.151 139.48 183.121 137.411 178.726C137.03 177.96 136.649 177.193 136.268 176.376C135.452 176.171 134.581 176.018 133.982 175.762C133.655 175.609 133.438 175.558 133.438 175.251C133.438 174.945 133.764 174.894 134.036 174.894C134.472 174.894 136.268 175.2 138.663 175.2C140.678 175.2 142.039 174.894 142.365 174.894C142.637 174.894 142.964 174.945 142.964 175.251C142.964 175.762 142.746 175.609 142.42 175.762C141.821 176.069 140.895 176.222 140.024 176.376C141.113 178.573 143.454 183.99 145.631 188.538C147.972 183.785 149.551 179.493 150.531 176.376C149.769 176.171 148.952 176.018 148.408 175.762C148.081 175.609 147.863 175.711 147.863 175.251C147.863 174.945 148.19 174.894 148.462 174.894C148.789 174.894 150.15 175.2 152.001 175.2C153.851 175.2 155.158 174.894 155.485 174.894C155.757 174.894 156.083 174.945 156.083 175.251C156.083 175.711 155.866 175.609 155.539 175.762C154.886 176.018 154.015 176.222 153.144 176.376C151.62 179.595 146.666 188.742 145.25 191.4C144.924 192.013 144.815 192.217 144.379 192.217Z" fill="white"/>
<path d="M188.36 192.217C178.507 192.217 171.539 185.472 171.539 175.967C171.539 166.462 179.051 158.234 189.013 158.234C192.497 158.234 196.416 159.154 198.92 159.87C199.084 159.052 199.356 157.212 199.683 156.599C199.791 156.293 200.009 156.139 200.227 156.139C200.499 156.139 200.662 156.344 200.662 156.65C200.662 157.059 200.173 161.454 200.173 163.6C200.173 165.9 200.445 170.192 200.445 170.703C200.445 171.214 200.281 171.419 200.009 171.419C199.683 171.419 199.574 171.214 199.465 170.754C198.975 169.068 198.648 164.929 198.648 163.907C196.416 162.22 192.551 159.768 187.489 159.768C180.575 159.768 174.859 164.162 174.859 172.39C174.859 181.844 181.555 190.378 190.755 190.378C197.07 190.378 199.356 186.392 200.118 186.392C200.336 186.392 200.554 186.545 200.554 186.749C200.554 186.903 200.445 187.107 200.336 187.26C199.356 188.742 194.892 192.217 188.36 192.217Z" fill="white"/>
<path d="M216.23 191.298C216.23 191.604 215.904 191.655 215.632 191.655C215.196 191.655 213.4 191.349 210.787 191.349C208.174 191.349 206.377 191.655 205.942 191.655C205.67 191.655 205.343 191.604 205.343 191.298C205.343 190.991 205.506 190.838 205.887 190.787C206.704 190.531 207.956 190.327 208.99 190.173C209.099 184.859 209.154 176.376 209.154 172.185C209.154 168.25 208.936 160.892 208.936 157.212C208.936 156.139 208.664 154.862 207.847 154.862C206.758 154.862 205.887 155.833 205.343 155.833C205.071 155.833 204.962 155.628 204.962 155.373C204.962 154.606 209.48 152 211.767 152C212.746 152 212.746 152.767 212.746 153.584C212.746 156.19 212.474 168.25 212.474 172.185C212.474 176.376 212.474 184.859 212.583 190.173C213.617 190.327 214.869 190.531 215.686 190.787C216.067 190.838 216.23 190.991 216.23 191.298Z" fill="white"/>
<path d="M224.778 191.348C222.165 191.348 220.369 191.655 219.933 191.655C219.661 191.655 219.334 191.604 219.334 191.297C219.334 190.991 219.498 190.837 219.879 190.786C220.695 190.531 221.947 190.326 222.982 190.173C223.091 188.844 223.145 185.114 223.145 183.581C223.145 182.048 223.091 177.96 223.036 176.58C222.111 176.58 220.586 176.682 219.443 176.682C219.117 176.682 219.008 176.478 219.008 176.324C219.008 175.762 220.26 175.711 222.383 175.251C224.397 174.791 225.812 174.331 226.194 174.331C226.52 174.331 226.629 174.536 226.629 174.996C226.629 175.405 226.575 176.018 226.575 176.58C226.52 177.96 226.466 181.997 226.466 183.581C226.466 185.165 226.52 188.844 226.629 190.173C227.663 190.326 228.861 190.531 229.677 190.786C230.059 190.837 230.222 190.991 230.222 191.297C230.222 191.604 229.895 191.655 229.623 191.655C229.188 191.655 227.391 191.348 224.778 191.348ZM224.397 166.717C223.036 166.717 221.893 165.644 221.893 164.367C221.893 163.089 223.036 162.016 224.397 162.016C225.758 162.016 226.901 163.089 226.901 164.367C226.901 165.644 225.758 166.717 224.397 166.717Z" fill="white"/>
<path d="M257.278 191.655C256.842 191.655 255.046 191.349 252.433 191.349C249.82 191.349 248.023 191.655 247.588 191.655C247.316 191.655 246.989 191.604 246.989 191.297C246.989 190.991 247.152 190.838 247.534 190.786C248.35 190.531 249.602 190.327 250.636 190.173C250.745 188.845 250.8 185.114 250.8 183.581C250.8 179.646 250.8 176.529 247.044 176.529C244.539 176.529 242.308 177.806 240.838 178.624C240.838 180.259 240.783 181.895 240.783 183.581C240.783 185.114 240.783 188.845 240.947 190.173C241.981 190.327 243.179 190.531 243.995 190.786C244.376 190.838 244.539 190.991 244.539 191.297C244.539 191.604 244.213 191.655 243.941 191.655C243.505 191.655 241.709 191.349 239.096 191.349C236.483 191.349 234.686 191.655 234.251 191.655C233.979 191.655 233.652 191.604 233.652 191.297C233.652 190.991 233.815 190.838 234.196 190.786C235.013 190.531 236.265 190.327 237.299 190.173C237.408 188.845 237.463 185.114 237.463 183.581C237.463 182.048 237.408 177.96 237.299 176.58C236.864 176.58 234.305 176.682 233.652 176.682C233.38 176.682 233.162 176.58 233.162 176.325C233.162 175.66 233.706 175.865 237.463 174.996C239.314 174.587 239.858 174.332 240.348 174.332C240.783 174.332 240.892 174.638 240.892 174.996C240.892 175.405 240.783 176.887 240.783 177.551C243.179 176.325 246.88 174.587 249.167 174.587C253.086 174.587 254.229 176.376 254.229 179.186C254.229 180.668 254.12 182.201 254.12 183.581C254.12 185.114 254.175 188.845 254.284 190.173C255.318 190.327 256.516 190.531 257.332 190.786C257.713 190.838 257.877 190.991 257.877 191.297C257.877 191.604 257.55 191.655 257.278 191.655Z" fill="white"/>
<path d="M266.095 191.348C263.482 191.348 261.685 191.655 261.25 191.655C260.977 191.655 260.651 191.604 260.651 191.297C260.651 190.991 260.814 190.837 261.195 190.786C262.012 190.531 263.264 190.326 264.298 190.173C264.407 188.844 264.461 185.114 264.461 183.581C264.461 182.048 264.407 177.96 264.353 176.58C263.427 176.58 261.903 176.682 260.76 176.682C260.433 176.682 260.324 176.478 260.324 176.324C260.324 175.762 261.576 175.711 263.699 175.251C265.713 174.791 267.129 174.331 267.51 174.331C267.837 174.331 267.945 174.536 267.945 174.996C267.945 175.405 267.891 176.018 267.891 176.58C267.837 177.96 267.782 181.997 267.782 183.581C267.782 185.165 267.837 188.844 267.945 190.173C268.98 190.326 270.177 190.531 270.994 190.786C271.375 190.837 271.538 190.991 271.538 191.297C271.538 191.604 271.212 191.655 270.939 191.655C270.504 191.655 268.708 191.348 266.095 191.348ZM265.713 166.717C264.353 166.717 263.209 165.644 263.209 164.367C263.209 163.089 264.353 162.016 265.713 162.016C267.074 162.016 268.218 163.089 268.218 164.367C268.218 165.644 267.074 166.717 265.713 166.717Z" fill="white"/>
<path d="M283.788 191.962C279.868 191.962 275.241 189.407 275.241 183.785C275.241 178.829 279.487 174.587 284.985 174.587C287.272 174.587 288.742 175.149 289.885 175.609C290.211 174.587 290.375 173.616 290.919 173.616C291.137 173.616 291.3 173.82 291.3 174.127C291.3 174.74 290.974 176.682 290.974 178.42C290.974 179.953 291.137 181.435 291.137 181.895C291.137 182.15 291.028 182.355 290.756 182.355C290.103 182.355 289.885 179.697 289.667 178.675C288.796 177.5 286.401 175.762 283.679 175.762C280.957 175.762 278.235 177.551 278.235 181.588C278.235 186.698 281.937 189.764 285.584 189.764C289.232 189.764 290.647 186.698 291.355 186.698C291.681 186.698 291.79 186.852 291.79 187.107C291.79 187.567 289.449 191.962 283.788 191.962Z" fill="white"/>
</svg>
