<svg width="31" height="31" viewBox="0 0 31 31" fill="none" xmlns="http://www.w3.org/2000/svg">
<path d="M21.47 0H8.71C3.9 0 0 3.9 0 8.71V21.47C0 26.28 3.9 30.18 8.71 30.18H21.47C26.28 30.18 30.18 26.28 30.18 21.47V8.71C30.19 3.9 26.29 0 21.47 0ZM27.41 21.7C27.41 24.89 24.82 27.48 21.63 27.48H8.56C5.37 27.48 2.78 24.89 2.78 21.7V8.64C2.78 5.45 5.37 2.86 8.56 2.86H21.62C24.81 2.86 27.4 5.45 27.4 8.64L27.41 21.7Z" fill="black"/>
<path d="M15.0878 7.33984C10.7578 7.33984 7.25781 10.8498 7.25781 15.1698C7.25781 19.4998 10.7678 22.9998 15.0878 22.9998C19.4178 22.9998 22.9178 19.4898 22.9178 15.1698C22.9178 10.8398 19.4178 7.33984 15.0878 7.33984ZM15.0878 20.2498C12.2878 20.2498 10.0078 17.9798 10.0078 15.1698C10.0078 12.3598 12.2778 10.0898 15.0878 10.0898C17.8878 10.0898 20.1678 12.3598 20.1678 15.1698C20.1678 17.9698 17.8878 20.2498 15.0878 20.2498Z" fill="black"/>
<path d="M23.1894 5.21094C22.1794 5.21094 21.3594 6.03094 21.3594 7.03094C21.3594 8.03094 22.1794 8.86094 23.1794 8.86094C24.1794 8.86094 25.0094 8.04094 25.0094 7.04094C25.0094 6.03094 24.1894 5.21094 23.1894 5.21094Z" fill="black"/>
</svg>
