<svg width="60" height="60" viewBox="0 0 60 60" fill="none" xmlns="http://www.w3.org/2000/svg">
<circle cx="30" cy="30" r="30" fill="black" fill-opacity="0.7"/>
<path d="M40.9983 18.1003C41.2482 18.1007 41.4891 18.003 41.6738 17.8262C41.8584 17.6494 41.9733 17.4064 41.9959 17.145C42.0185 16.8837 41.9471 16.6229 41.7957 16.4141C41.6444 16.2053 41.4241 16.0636 41.1783 16.0168L40.9983 16H19.0017C18.7518 15.9995 18.5109 16.0973 18.3262 16.2741C18.1416 16.4509 18.0267 16.6939 18.0041 16.9552C17.9815 17.2166 18.0529 17.4773 18.2043 17.6862C18.3556 17.895 18.5759 18.0367 18.8217 18.0835L19.0017 18.1003H40.9983ZM30 44.6C30.234 44.6001 30.4606 44.5139 30.6404 44.3566C30.8202 44.1993 30.9417 43.9807 30.9838 43.7389L30.9998 43.5499L30.9918 23.7794L38.2807 31.4411C38.4459 31.6154 38.6641 31.7233 38.8972 31.7459C39.1304 31.7686 39.3637 31.7046 39.5565 31.565L39.6965 31.4432C39.8621 31.2695 39.9645 31.0402 39.9857 30.7953C40.0069 30.5505 39.9456 30.3055 39.8125 30.1033L39.6965 29.9562L30.7139 20.5051C30.5745 20.359 30.3971 20.2596 30.204 20.2194L29.992 20.1963C29.8394 20.1963 29.6889 20.233 29.552 20.3037C29.4151 20.3743 29.2954 20.477 29.2021 20.6038L20.2895 29.9562C20.1143 30.1417 20.0112 30.3891 20.0004 30.6501C19.9896 30.9111 20.0718 31.167 20.231 31.3678C20.3901 31.5686 20.6148 31.6998 20.8612 31.7359C21.1076 31.772 21.3579 31.7103 21.5633 31.5629L21.7033 31.4432L28.9922 23.7962L29.0002 43.5499C29.0002 43.8284 29.1055 44.0955 29.293 44.2924C29.4805 44.4894 29.7348 44.6 30 44.6Z" fill="white"/>
</svg>
