<svg width="37" height="30" viewBox="0 0 37 30" fill="none" xmlns="http://www.w3.org/2000/svg">
<path d="M7.72863 10.7895C7.33863 10.7795 6.95863 10.9395 6.67863 11.2195C6.10863 11.7895 6.09863 12.7095 6.66863 13.2895L6.67863 13.2995C6.95863 13.5795 7.32863 13.7395 7.72863 13.7295C8.12863 13.7395 8.50863 13.5795 8.78863 13.2995C9.35863 12.7495 9.37863 11.8295 8.82863 11.2595C8.81863 11.2495 8.79863 11.2295 8.78863 11.2195C8.50863 10.9395 8.12863 10.7795 7.72863 10.7895Z" fill="black"/>
<path d="M20.3784 10.7797C19.9884 10.7697 19.6084 10.9297 19.3284 11.2097C18.7584 11.7797 18.7484 12.6997 19.3084 13.2697C19.3184 13.2797 19.3184 13.2797 19.3284 13.2897C19.6084 13.5697 19.9784 13.7297 20.3784 13.7197C20.7784 13.7297 21.1584 13.5697 21.4384 13.2897C22.0084 12.7397 22.0284 11.8197 21.4784 11.2497C21.4684 11.2397 21.4484 11.2197 21.4384 11.2097C21.1584 10.9297 20.7684 10.7697 20.3784 10.7797Z" fill="black"/>
<path d="M28.8107 10.7895C28.4207 10.7795 28.0407 10.9395 27.7607 11.2195C27.1907 11.7895 27.1807 12.7095 27.7507 13.2895L27.7607 13.2995C28.0407 13.5795 28.4107 13.7395 28.8107 13.7295C29.2107 13.7395 29.5907 13.5795 29.8707 13.2995C30.4407 12.7495 30.4607 11.8295 29.9107 11.2595C29.9007 11.2495 29.8807 11.2295 29.8707 11.2195C29.5907 10.9395 29.2107 10.7795 28.8107 10.7895Z" fill="black"/>
<path d="M32.56 0.000384344H3.98C1.82 -0.0296157 0.04 1.70038 0 3.87038V19.5504C0.04 21.7104 1.82 23.4404 3.98 23.4204H15.2C15.2 23.4204 17.37 29.1604 18.16 29.1604C18.95 29.1604 21.29 23.4204 21.29 23.4204H32.56C34.72 23.4504 36.5 21.7204 36.54 19.5504V3.87038C36.5 1.70038 34.72 -0.0296157 32.56 0.000384344ZM10.62 14.4804C9.99 15.1004 9.12 15.4104 8.24 15.3604C7.55 15.3804 6.86 15.1704 6.3 14.7704H6.27V15.2104H4.13V6.13038H6.27V9.60038H6.3C6.96 9.13038 7.75 8.89038 8.56 8.93038C9.36 8.96038 10.11 9.32038 10.63 9.92038C11.18 10.5704 11.47 11.4004 11.47 12.2504C11.51 13.0804 11.21 13.8904 10.62 14.4804ZM15.22 15.2804H13.04V9.66038C13.11 8.97038 12.66 8.35038 11.98 8.19038V5.94038C13.89 6.14038 15.32 7.80038 15.22 9.73038V15.2804ZM23.81 13.5604C23.62 13.9704 23.35 14.3504 23.01 14.6504C22.66 14.9704 22.25 15.2104 21.81 15.3804C21.35 15.5504 20.87 15.6404 20.38 15.6304C19.9 15.6304 19.42 15.5504 18.97 15.3804C18.53 15.2204 18.12 14.9704 17.77 14.6504C17.43 14.3404 17.15 13.9704 16.95 13.5504C16.58 12.7404 16.58 11.8004 16.95 10.9904C17.15 10.5704 17.43 10.2004 17.77 9.89038C18.12 9.58038 18.53 9.33038 18.97 9.16038C19.42 8.99038 19.9 8.90038 20.38 8.90038C20.87 8.90038 21.35 8.98038 21.81 9.15038C22.25 9.31038 22.66 9.56038 23.01 9.88038C23.35 10.1804 23.62 10.5504 23.81 10.9704C24.17 11.7904 24.17 12.7304 23.81 13.5604ZM32.41 14.4504C32.56 15.6304 32.18 16.8204 31.37 17.7004C30.48 18.4004 29.32 18.6604 28.21 18.4104V16.7604C29.08 16.8404 30.28 16.2904 30.28 15.1904V14.7704H30.25C29.73 15.4104 28.92 15.7504 28.1 15.6604C27.28 15.6904 26.49 15.3604 25.94 14.7604C25.4 14.1004 25.12 13.2504 25.16 12.4004C25.11 11.4404 25.42 10.5004 26.02 9.76038C26.62 9.11038 27.47 8.76038 28.35 8.80038C29.04 8.75038 29.73 8.99038 30.24 9.46038H30.27V8.96038H32.4L32.41 14.4504Z" fill="black"/>
</svg>
