<svg width="141" height="29" viewBox="0 0 141 29" fill="none" xmlns="http://www.w3.org/2000/svg">
<g clip-path="url(#clip0_289_2069)">
<path d="M21.75 16.19C21.75 21.86 17.73 26.51 11.43 26.51C5.52 26.51 1.56 22.1 1.56 16.88C1.56 11.21 5.58 6.56 11.88 6.56C17.79 6.56 21.75 10.97 21.75 16.19ZM13.26 25.37C16.86 25.37 20.43 22.25 20.43 18.05C20.43 12.29 14.94 7.7 10.05 7.7C6.48 7.7 2.88 10.82 2.88 15.02C2.88 20.78 8.37 25.37 13.26 25.37ZM27.6096 25.19V26.18C27.0696 26.12 26.5896 26 26.0496 26C24.8496 26 24.1296 26.18 23.9496 26.18C23.7996 26.18 23.6196 26.15 23.6196 25.97C23.6196 25.79 23.7096 25.7 23.9196 25.67C24.4596 25.52 25.0896 25.4 25.7496 25.31C25.8396 22.76 25.8696 19.49 25.8696 15.17C25.8696 12.86 25.8996 9.83 25.7196 5.96C25.6896 5.33 25.5696 4.58 25.1196 4.58C24.5196 4.58 24.0396 5.15 23.7396 5.15C23.5896 5.15 23.5296 5.03 23.5296 4.88C23.5296 4.43 26.0196 2.9 27.2796 2.9C27.8196 2.9 27.8196 3.35 27.8196 3.83C27.8196 5.78 27.6996 14.27 27.6996 18.02C28.6296 17.33 30.1296 16.16 31.8096 16.16C34.2696 16.16 35.2896 18.47 35.2896 20.75C35.2896 23.96 33.6996 26.36 30.7296 26.36C28.9896 26.36 27.9696 25.52 27.6096 25.19ZM30.5496 25.67C32.3196 25.67 33.2796 23.72 33.2796 21.11C33.2796 19.01 32.3796 17.3 30.6696 17.3C29.4096 17.3 28.4196 18.2 27.6996 18.8C27.6696 19.73 27.6096 20.93 27.6096 21.65C27.6096 22.31 27.6096 23.57 28.1196 24.38C28.5396 25.16 29.6196 25.67 30.5496 25.67ZM43.3697 25.67C43.5797 25.7 43.6697 25.79 43.6697 25.97C43.6697 26.15 43.4897 26.18 43.3397 26.18C43.0997 26.18 42.1097 26 40.6697 26C39.2297 26 38.2397 26.18 37.9997 26.18C37.8497 26.18 37.6697 26.15 37.6697 25.97C37.6697 25.79 37.7597 25.7 37.9697 25.67C38.4197 25.52 39.1097 25.4 39.6797 25.31C39.7397 22.19 39.7697 17.21 39.7697 14.75C39.7697 12.44 39.6497 8.12 39.6497 5.96C39.6497 5.33 39.4997 4.58 39.0497 4.58C38.4497 4.58 37.9697 5.15 37.6697 5.15C37.5197 5.15 37.4597 5.03 37.4597 4.88C37.4597 4.43 39.9497 2.9 41.2097 2.9C41.7497 2.9 41.7497 3.35 41.7497 3.83C41.7497 5.36 41.5997 12.44 41.5997 14.75C41.5997 17.21 41.5997 22.19 41.6597 25.31C42.2297 25.4 42.9197 25.52 43.3697 25.67ZM51.0434 26.18C50.8034 26.18 49.8134 26 48.3734 26C46.9334 26 45.9434 26.18 45.7034 26.18C45.5534 26.18 45.3734 26.15 45.3734 25.97C45.3734 25.79 45.4634 25.7 45.6734 25.67C46.1234 25.52 46.8134 25.4 47.3834 25.31C47.4434 24.53 47.4734 22.34 47.4734 21.44C47.4734 20.57 47.4434 18.14 47.4134 17.33C46.9034 17.33 46.0634 17.39 45.4334 17.39C45.2534 17.39 45.1934 17.27 45.1934 17.18C45.1934 16.85 45.8834 16.82 47.0534 16.55C48.1634 16.28 48.9434 16.01 49.1534 16.01C49.3334 16.01 49.3934 16.13 49.3934 16.4C49.3934 16.64 49.3634 17 49.3634 17.33C49.3334 18.14 49.3034 20.51 49.3034 21.44C49.3034 22.34 49.3334 24.53 49.3934 25.31C49.9634 25.4 50.6234 25.52 51.0734 25.67C51.2834 25.7 51.3734 25.79 51.3734 25.97C51.3734 26.15 51.1934 26.18 51.0434 26.18ZM49.5434 10.16C49.5434 10.91 48.9134 11.54 48.1634 11.54C47.4134 11.54 46.7834 10.91 46.7834 10.16C46.7834 9.41 47.4134 8.78 48.1634 8.78C48.9134 8.78 49.5434 9.41 49.5434 10.16ZM58.957 26.03C58.777 26.39 58.717 26.51 58.477 26.51C58.267 26.51 58.117 26.21 58.027 26.03C57.367 24.71 55.777 21.17 54.637 18.59C54.427 18.14 54.217 17.69 54.007 17.21C53.557 17.09 53.077 17 52.747 16.85C52.567 16.76 52.447 16.73 52.447 16.55C52.447 16.37 52.627 16.34 52.777 16.34C53.017 16.34 54.007 16.52 55.327 16.52C56.437 16.52 57.187 16.34 57.367 16.34C57.517 16.34 57.697 16.37 57.697 16.55C57.697 16.85 57.577 16.76 57.397 16.85C57.067 17.03 56.557 17.12 56.077 17.21C56.677 18.5 57.967 21.68 59.167 24.35C60.457 21.56 61.327 19.04 61.867 17.21C61.447 17.09 60.997 17 60.697 16.85C60.517 16.76 60.397 16.82 60.397 16.55C60.397 16.37 60.577 16.34 60.727 16.34C60.907 16.34 61.657 16.52 62.677 16.52C63.667 16.52 64.417 16.34 64.597 16.34C64.747 16.34 64.927 16.37 64.927 16.55C64.927 16.82 64.807 16.76 64.627 16.85C64.267 17 63.787 17.12 63.307 17.21C62.467 19.1 59.737 24.47 58.957 26.03ZM89.3009 23.6C88.7609 24.47 86.3009 26.51 82.7009 26.51C77.2709 26.51 73.4309 22.55 73.4309 16.97C73.4309 11.12 77.5709 6.56 83.0609 6.56C84.9809 6.56 87.1409 7.1 88.5209 7.52C88.6109 7.04 88.7609 5.96 88.9409 5.6C89.0009 5.42 89.1209 5.33 89.2409 5.33C89.3909 5.33 89.4809 5.45 89.4809 5.63C89.4809 5.87 89.2109 8.45 89.2109 9.71C89.2109 11.06 89.3609 13.58 89.3609 13.88C89.3609 14.18 89.2709 14.3 89.1209 14.3C88.9409 14.3 88.8809 14.18 88.8209 13.91C88.5509 12.92 88.3709 10.49 88.3709 9.89C87.1409 8.9 85.0109 7.46 82.2209 7.46C78.4109 7.46 75.2609 10.04 75.2609 14.87C75.2609 20.42 78.9509 25.43 84.0209 25.43C87.5009 25.43 88.7609 23.09 89.1809 23.09C89.3009 23.09 89.4209 23.18 89.4209 23.3C89.4209 23.39 89.3609 23.51 89.3009 23.6ZM97.774 25.67C97.984 25.7 98.074 25.79 98.074 25.97C98.074 26.15 97.894 26.18 97.744 26.18C97.504 26.18 96.514 26 95.074 26C93.634 26 92.644 26.18 92.404 26.18C92.254 26.18 92.074 26.15 92.074 25.97C92.074 25.79 92.164 25.7 92.374 25.67C92.824 25.52 93.514 25.4 94.084 25.31C94.144 22.19 94.174 17.21 94.174 14.75C94.174 12.44 94.054 8.12 94.054 5.96C94.054 5.33 93.904 4.58 93.454 4.58C92.854 4.58 92.374 5.15 92.074 5.15C91.924 5.15 91.864 5.03 91.864 4.88C91.864 4.43 94.354 2.9 95.614 2.9C96.154 2.9 96.154 3.35 96.154 3.83C96.154 5.36 96.004 12.44 96.004 14.75C96.004 17.21 96.004 22.19 96.064 25.31C96.634 25.4 97.324 25.52 97.774 25.67ZM105.448 26.18C105.208 26.18 104.218 26 102.778 26C101.338 26 100.348 26.18 100.108 26.18C99.9577 26.18 99.7777 26.15 99.7777 25.97C99.7777 25.79 99.8677 25.7 100.078 25.67C100.528 25.52 101.218 25.4 101.788 25.31C101.848 24.53 101.878 22.34 101.878 21.44C101.878 20.57 101.848 18.14 101.818 17.33C101.308 17.33 100.468 17.39 99.8377 17.39C99.6577 17.39 99.5977 17.27 99.5977 17.18C99.5977 16.85 100.288 16.82 101.458 16.55C102.568 16.28 103.348 16.01 103.558 16.01C103.738 16.01 103.798 16.13 103.798 16.4C103.798 16.64 103.768 17 103.768 17.33C103.738 18.14 103.708 20.51 103.708 21.44C103.708 22.34 103.738 24.53 103.798 25.31C104.368 25.4 105.028 25.52 105.478 25.67C105.688 25.7 105.778 25.79 105.778 25.97C105.778 26.15 105.598 26.18 105.448 26.18ZM103.948 10.16C103.948 10.91 103.318 11.54 102.568 11.54C101.818 11.54 101.188 10.91 101.188 10.16C101.188 9.41 101.818 8.78 102.568 8.78C103.318 8.78 103.948 9.41 103.948 10.16ZM121.011 25.97C121.011 26.15 120.831 26.18 120.681 26.18C120.441 26.18 119.451 26 118.011 26C116.571 26 115.581 26.18 115.341 26.18C115.191 26.18 115.011 26.15 115.011 25.97C115.011 25.79 115.101 25.7 115.311 25.67C115.761 25.52 116.451 25.4 117.021 25.31C117.081 24.53 117.111 22.34 117.111 21.44C117.111 19.13 117.111 17.3 115.041 17.3C113.661 17.3 112.431 18.05 111.621 18.53C111.621 19.49 111.591 20.45 111.591 21.44C111.591 22.34 111.591 24.53 111.681 25.31C112.251 25.4 112.911 25.52 113.361 25.67C113.571 25.7 113.661 25.79 113.661 25.97C113.661 26.15 113.481 26.18 113.331 26.18C113.091 26.18 112.101 26 110.661 26C109.221 26 108.231 26.18 107.991 26.18C107.841 26.18 107.661 26.15 107.661 25.97C107.661 25.79 107.751 25.7 107.961 25.67C108.411 25.52 109.101 25.4 109.671 25.31C109.731 24.53 109.761 22.34 109.761 21.44C109.761 20.51 109.731 18.14 109.671 17.33C109.431 17.33 108.021 17.39 107.661 17.39C107.511 17.39 107.391 17.33 107.391 17.18C107.391 16.79 107.691 16.91 109.761 16.4C110.781 16.16 111.081 16.01 111.351 16.01C111.591 16.01 111.651 16.19 111.651 16.4C111.651 16.64 111.591 17.51 111.591 17.9C112.911 17.18 114.951 16.16 116.211 16.16C118.371 16.16 119.001 17.21 119.001 18.86C119.001 19.73 118.941 20.63 118.941 21.44C118.941 22.34 118.971 24.53 119.031 25.31C119.601 25.4 120.261 25.52 120.711 25.67C120.921 25.7 121.011 25.79 121.011 25.97ZM128.211 26.18C127.971 26.18 126.981 26 125.541 26C124.101 26 123.111 26.18 122.871 26.18C122.721 26.18 122.541 26.15 122.541 25.97C122.541 25.79 122.631 25.7 122.841 25.67C123.291 25.52 123.981 25.4 124.551 25.31C124.611 24.53 124.641 22.34 124.641 21.44C124.641 20.57 124.611 18.14 124.581 17.33C124.071 17.33 123.231 17.39 122.601 17.39C122.421 17.39 122.361 17.27 122.361 17.18C122.361 16.85 123.051 16.82 124.221 16.55C125.331 16.28 126.111 16.01 126.321 16.01C126.501 16.01 126.561 16.13 126.561 16.4C126.561 16.64 126.531 17 126.531 17.33C126.501 18.14 126.471 20.51 126.471 21.44C126.471 22.34 126.501 24.53 126.561 25.31C127.131 25.4 127.791 25.52 128.241 25.67C128.451 25.7 128.541 25.79 128.541 25.97C128.541 26.15 128.361 26.18 128.211 26.18ZM126.711 10.16C126.711 10.91 126.081 11.54 125.331 11.54C124.581 11.54 123.951 10.91 123.951 10.16C123.951 9.41 124.581 8.78 125.331 8.78C126.081 8.78 126.711 9.41 126.711 10.16ZM139.695 23.51C139.695 23.78 138.405 26.36 135.285 26.36C133.125 26.36 130.575 24.86 130.575 21.56C130.575 18.65 132.915 16.16 135.945 16.16C137.205 16.16 138.015 16.49 138.645 16.76C138.825 16.16 138.915 15.59 139.215 15.59C139.335 15.59 139.425 15.71 139.425 15.89C139.425 16.25 139.245 17.39 139.245 18.41C139.245 19.31 139.335 20.18 139.335 20.45C139.335 20.6 139.275 20.72 139.125 20.72C138.765 20.72 138.645 19.16 138.525 18.56C138.045 17.87 136.725 16.85 135.225 16.85C133.695 16.85 132.225 17.9 132.225 20.27C132.225 23.27 134.265 25.07 136.275 25.07C138.285 25.07 139.065 23.27 139.455 23.27C139.635 23.27 139.695 23.36 139.695 23.51Z" fill="black"/>
</g>
<defs>
<clipPath id="clip0_289_2069">
<rect width="141" height="29" fill="white"/>
</clipPath>
</defs>
</svg>
